<svg width="615" height="285" viewBox="0 0 615 285" fill="none" xmlns="http://www.w3.org/2000/svg">
<path d="M59.9356 25.3595C56.839 22.1916 52.5366 20.2459 47.7464 20.2459C45.4885 20.2368 43.2521 20.6852 41.1723 21.5641C39.0924 22.4429 37.2121 23.734 35.6449 25.3595H35.5627C33.9464 26.9878 32.6676 28.9192 31.7995 31.0429C30.9314 33.1666 30.4911 35.4408 30.5039 37.7351C30.4722 42.3495 32.2717 46.7882 35.5079 50.0777L35.5901 50.1654C37.1639 51.7784 39.0466 53.0577 41.1258 53.9269C43.205 54.7961 45.4381 55.2373 47.6916 55.2242C52.4818 55.2242 56.7787 53.3059 59.8808 50.1654L59.9137 50.0777C63.0158 46.9647 64.8464 42.6075 64.8464 37.7351C64.8764 33.115 63.0821 28.6697 59.8534 25.365H59.8808L59.9356 25.3595ZM47.7464 264.759C52.5366 264.759 56.8335 262.775 59.9356 259.662L59.9685 259.574C63.0706 256.472 64.9012 252.088 64.9012 247.27C64.9012 242.337 63.0104 238.03 59.9685 234.873H59.9356C56.839 231.677 52.5366 229.743 47.7464 229.743C45.4864 229.729 43.2474 230.177 41.1665 231.059C39.0857 231.942 37.2068 233.239 35.6449 234.873H35.5627C32.3334 238.189 30.5363 242.641 30.5587 247.27C30.5372 251.871 32.3359 256.294 35.5627 259.574L35.6449 259.662C37.2216 261.274 39.1041 262.554 41.1822 263.428C43.2602 264.303 45.4919 264.759 47.7464 264.759ZM141.38 211.777C143.58 211.193 145.64 210.173 147.438 208.778C149.237 207.383 150.736 205.64 151.848 203.654L152.166 203.04C154.196 199.14 154.681 194.617 153.525 190.374C152.396 186.012 149.689 182.142 145.512 179.742L145.271 179.577C141.382 177.384 136.783 176.82 132.479 178.01C128.204 179.095 124.368 181.994 122.022 186.16C119.742 190.197 119.121 194.963 120.29 199.45C121.472 203.905 124.344 207.724 128.297 210.094H128.325C132.435 212.506 137.077 212.928 141.385 211.738L141.38 211.777ZM65.3232 124.633C60.8126 120.056 54.5809 117.179 47.6971 117.179C44.4161 117.185 41.1695 117.847 38.1482 119.126C35.1268 120.405 32.3917 122.275 30.1038 124.627C25.6096 129.198 22.8473 135.506 22.8473 142.522C22.8286 149.23 25.4328 155.679 30.1038 160.493C34.5981 165.042 40.8133 167.892 47.6423 167.892C54.4713 167.892 60.7578 165.042 65.2684 160.493C69.9448 155.679 72.5531 149.228 72.5359 142.516C72.5669 135.827 69.955 129.395 65.2684 124.622L65.3232 124.633ZM55.4579 94.8282C65.2983 96.4959 74.3518 101.255 81.3052 108.415H81.36C82.4654 109.544 83.5136 110.727 84.5004 111.961L101.655 101.86C99.3982 94.9083 99.2041 87.4516 101.096 80.3918C103.541 71.0745 109.482 62.7438 118.372 57.5206L118.662 57.3343C122.828 54.9143 127.433 53.3468 132.21 52.7229C136.987 52.0991 141.84 52.4314 146.488 53.7005C151.207 54.9926 155.623 57.2081 159.48 60.2186C163.338 63.2291 166.559 66.9748 168.959 71.239V71.2664C174.067 80.2548 175.097 90.5696 172.67 99.854C170.236 109.171 164.284 117.557 155.394 122.753L153.048 124.161H152.813C144.859 128.009 135.784 128.856 127.256 126.545C120.307 124.637 114.065 120.744 109.295 115.343L92.1626 125.411C94.1986 130.866 95.2346 136.644 95.2208 142.467C95.2208 148.474 94.1356 154.273 92.1626 159.6L109.295 169.646C114.19 164.067 120.443 160.329 127.256 158.438C136.409 155.895 146.537 156.975 155.394 162.231L155.964 162.505V162.532C164.251 167.63 170.239 175.741 172.67 185.162C175.206 194.802 173.875 205.051 168.959 213.722L168.652 214.353H168.614C163.714 222.69 155.773 228.803 146.46 231.409C137.308 233.864 127.168 232.817 118.317 227.638V227.567C109.754 222.53 103.54 214.3 101.041 204.685C99.1463 197.636 99.3405 190.189 101.6 183.249L84.4456 173.176C83.4566 174.39 82.4085 175.555 81.3052 176.667L81.2503 176.722C74.3884 183.737 65.3561 188.615 55.4031 190.232V210.401C62.4437 211.92 68.881 215.479 73.9116 220.634L73.939 220.688C80.642 227.474 84.7909 236.933 84.7909 247.325C84.8086 257.268 80.91 266.817 73.939 273.907L73.9116 274.016C67.1703 280.78 57.9078 285 47.6971 285C37.5358 285 28.2513 280.78 21.521 273.956H21.4936V273.846C14.5152 266.758 10.6105 257.206 10.6252 247.259C10.6252 236.862 14.7906 227.408 21.4936 220.623V220.568H21.521C26.5248 215.387 32.9655 211.823 40.0131 210.335V190.166C30.0107 188.544 21.0496 183.671 14.2535 176.656L14.1822 176.601C5.22283 167.501 0.199387 155.243 0.195312 142.472C0.195312 129.154 5.5555 117.107 14.1165 108.366H14.1877C21.1292 101.205 30.1744 96.4448 40.0076 94.7788V74.6919C32.9833 73.1262 26.5615 69.5631 21.5155 64.4319H21.4881V64.3771C14.5065 57.2687 10.6024 47.6986 10.6197 37.7351C10.6097 27.7746 14.5128 18.2088 21.4881 11.0985L21.5703 11.0711C24.9637 7.57259 29.0244 4.79019 33.512 2.88857C37.9997 0.986939 42.8232 0.00471229 47.6971 0C57.9132 0 67.1703 4.22019 73.9171 11.0711V11.0985H73.9445C80.6475 17.9221 84.7964 27.3929 84.7964 37.7351C84.8049 47.692 80.9087 57.2554 73.9445 64.3716L73.9171 64.4264C68.9186 69.4906 62.539 73.1134 55.4085 74.6864V94.7734L55.4579 94.8282ZM151.837 81.4277L151.695 81.2085C149.421 77.3198 145.717 74.4737 141.374 73.2778C139.188 72.6763 136.902 72.5201 134.654 72.8186C132.406 73.117 130.24 73.864 128.286 75.0152H128.314C124.192 77.3939 121.435 81.2907 120.279 85.6479C119.098 90.1343 119.72 94.9048 122.011 98.9388L122.088 99.0484C124.461 103.159 128.242 105.927 132.463 107.039C136.699 108.256 141.429 107.741 145.496 105.329L145.715 105.22C149.716 102.786 152.402 98.9387 153.509 94.7186C154.643 90.3614 154.194 85.5986 151.837 81.4277ZM227.976 87.3305H247.12V146.808L274.732 115.732H297.752L264.418 151.74L297.779 197.308H275.856L247.071 156.542V197.308H227.921V87.2757M319.877 156.843C319.877 166.971 327.035 181.693 344.283 181.693C354.954 181.693 361.975 176.037 365.62 168.621C367.527 165.02 368.404 161.167 368.7 157.112C368.846 153.167 368.092 149.24 366.497 145.629C363.143 137.918 355.689 131.231 344.146 131.231C328.663 131.231 319.883 144.002 319.883 156.651V156.788L319.877 156.843ZM387.685 197.308H368.53V185.562C363.433 195.06 352.756 199.829 341.499 199.829C315.778 199.829 300.722 179.44 300.722 156.41C300.722 130.689 318.989 113.145 341.499 113.145C356.111 113.145 365.022 121.026 368.53 127.576V115.666H387.685V197.308ZM409.373 130.694H399.507V115.677H409.373V111.073C409.373 86.8153 427.498 85.3519 441.243 85.193V100.188C436.409 100.188 428.528 100.188 428.528 111.665V115.666H441.243V130.683H428.528V197.308H409.373V130.694ZM454.315 87.2757H473.454V146.753L501.077 115.677H524.096L490.762 151.686L524.156 197.308H502.233L473.448 156.542V197.308H454.31L454.315 87.2757ZM546.277 156.843C546.277 166.971 553.429 181.693 570.683 181.693C581.337 181.693 588.364 176.037 592.058 168.621C593.976 165.02 594.798 161.167 595.138 157.112C595.269 153.237 594.551 149.208 592.929 145.629C589.641 137.918 582.132 131.231 570.584 131.231C555.095 131.231 546.321 144.002 546.321 156.651V156.788L546.277 156.843ZM614.019 197.308H594.869V185.562C589.756 195.06 579.085 199.829 567.838 199.829C542.117 199.829 527.078 179.44 527.078 156.41C527.078 130.689 545.329 113.145 567.838 113.145C582.444 113.145 591.362 121.026 594.869 127.576V115.666H614.019V197.308Z" fill="#231F20"/>
</svg>
